# xmcd
#
# Track frame offsets: 
#        150
#        20095
#        48997
#        77350
#        101121
#        128124
#        157313
#        205345
#        226857
#        257209
#        300322
#        320722
#
# Disc length: 4547 seconds
#
# Revision: 0
# Processed by: cddbd v1.5.2PL0 Copyright (c) Steve Scherf et al.
# Submitted via: ExactAudioCopy v0.95b3
#
DISCID=9f11c10c
DTITLE=Various Artist - Midnight Soul Dive
DYEAR=2007
DGENRE=Electronic
TTITLE0=Unoccupied - Everyday Life
TTITLE1=Cord - Zodiac
TTITLE2=Krill.Minima - Wie Die Wolken Zieht Auch Der Tag Vorbei
TTITLE3=Hibernation - Melt
TTITLE4=Cosmic Fools - Bohemian Atmosphere
TTITLE5=Anahata - Prana
TTITLE6=Vataff Project - Plasticine Bird
TTITLE7=Omnimotion - Embrace
TTITLE8=Ishq and Shulman - Mother Nature
TTITLE9=Elve - Cyantium Flower
TTITLE10=Bluetech - Snow Drift
TTITLE11=Rena Jones - A Curious Unraveling
EXTD=
EXTT0=
EXTT1=
EXTT2=
EXTT3=
EXTT4=
EXTT5=
EXTT6=
EXTT7=
EXTT8=
EXTT9=
EXTT10=
EXTT11=
PLAYORDER=
